<svg width="100" height="100" viewBox="0 0 100 100" fill="none" xmlns="http://www.w3.org/2000/svg">
<path fill-rule="evenodd" clip-rule="evenodd" d="M37.5 21.875C37.5 21.0462 37.8292 20.2513 38.4153 19.6653C39.0013 19.0792 39.7962 18.75 40.625 18.75H90.625C91.4538 18.75 92.2487 19.0792 92.8347 19.6653C93.4208 20.2513 93.75 21.0462 93.75 21.875V78.125C93.75 78.9538 93.4208 79.7487 92.8347 80.3347C92.2487 80.9208 91.4538 81.25 90.625 81.25H40.625C39.7962 81.25 39.0013 80.9208 38.4153 80.3347C37.8292 79.7487 37.5 78.9538 37.5 78.125V65.625C37.5 64.7962 37.1708 64.0013 36.5847 63.4153C35.9987 62.8292 35.2038 62.5 34.375 62.5C33.5462 62.5 32.7513 62.8292 32.1653 63.4153C31.5792 64.0013 31.25 64.7962 31.25 65.625V78.125C31.25 80.6114 32.2377 82.996 33.9959 84.7541C35.754 86.5123 38.1386 87.5 40.625 87.5H90.625C93.1114 87.5 95.496 86.5123 97.2541 84.7541C99.0123 82.996 100 80.6114 100 78.125V21.875C100 19.3886 99.0123 17.004 97.2541 15.2459C95.496 13.4877 93.1114 12.5 90.625 12.5H40.625C38.1386 12.5 35.754 13.4877 33.9959 15.2459C32.2377 17.004 31.25 19.3886 31.25 21.875V34.375C31.25 35.2038 31.5792 35.9987 32.1653 36.5847C32.7513 37.1708 33.5462 37.5 34.375 37.5C35.2038 37.5 35.9987 37.1708 36.5847 36.5847C37.1708 35.9987 37.5 35.2038 37.5 34.375V21.875Z" fill="black"/>
<path fill-rule="evenodd" clip-rule="evenodd" d="M74.0875 52.2125C74.3785 51.9223 74.6094 51.5774 74.767 51.1978C74.9245 50.8181 75.0056 50.4111 75.0056 50C75.0056 49.589 74.9245 49.182 74.767 48.8023C74.6094 48.4227 74.3785 48.0778 74.0875 47.7875L55.3375 29.0375C55.047 28.747 54.702 28.5165 54.3224 28.3593C53.9428 28.202 53.5359 28.1211 53.125 28.1211C52.7141 28.1211 52.3072 28.202 51.9276 28.3593C51.548 28.5165 51.203 28.747 50.9125 29.0375C50.6219 29.3281 50.3915 29.673 50.2342 30.0526C50.077 30.4323 49.9961 30.8391 49.9961 31.25C49.9961 31.6609 50.077 32.0678 50.2342 32.4474C50.3915 32.8271 50.6219 33.172 50.9125 33.4625L64.3313 46.875H9.375C8.5462 46.875 7.75134 47.2043 7.16529 47.7903C6.57924 48.3764 6.25 49.1712 6.25 50C6.25 50.8288 6.57924 51.6237 7.16529 52.2098C7.75134 52.7958 8.5462 53.125 9.375 53.125H64.3313L50.9125 66.5375C50.6219 66.8281 50.3915 67.173 50.2342 67.5526C50.077 67.9323 49.9961 68.3391 49.9961 68.75C49.9961 69.1609 50.077 69.5678 50.2342 69.9474C50.3915 70.3271 50.6219 70.672 50.9125 70.9625C51.203 71.2531 51.548 71.4836 51.9276 71.6408C52.3072 71.7981 52.7141 71.879 53.125 71.879C53.5359 71.879 53.9428 71.7981 54.3224 71.6408C54.702 71.4836 55.047 71.2531 55.3375 70.9625L74.0875 52.2125Z" fill="black"/>
</svg>
