<svg width="100" height="100" viewBox="0 0 100 100" fill="none" xmlns="http://www.w3.org/2000/svg">
<path d="M96.8876 12.125C97.4715 12.7108 97.7994 13.5042 97.7994 14.3313C97.7994 15.1584 97.4715 15.9517 96.8876 16.5375L90.3688 23.0625L77.8688 10.5625L84.3876 4.03752C84.9736 3.45167 85.7683 3.12256 86.5969 3.12256C87.4256 3.12256 88.2203 3.45167 88.8063 4.03752L96.8876 12.1188V12.125ZM85.9501 27.475L73.4501 14.975L30.8688 57.5625C30.5248 57.9064 30.2659 58.3259 30.1126 58.7875L25.0813 73.875C24.9901 74.1501 24.9771 74.4451 25.0439 74.7271C25.1107 75.0091 25.2546 75.2669 25.4595 75.4718C25.6644 75.6768 25.9223 75.8206 26.2043 75.8874C26.4862 75.9542 26.7813 75.9413 27.0563 75.85L42.1438 70.8188C42.6048 70.6673 43.0242 70.4105 43.3688 70.0688L85.9501 27.475Z" fill="black"/>
<path fill-rule="evenodd" clip-rule="evenodd" d="M6.25 84.375C6.25 86.8614 7.23772 89.246 8.99587 91.0041C10.754 92.7623 13.1386 93.75 15.625 93.75H84.375C86.8614 93.75 89.246 92.7623 91.0041 91.0041C92.7623 89.246 93.75 86.8614 93.75 84.375V46.875C93.75 46.0462 93.4208 45.2513 92.8347 44.6653C92.2487 44.0792 91.4538 43.75 90.625 43.75C89.7962 43.75 89.0013 44.0792 88.4153 44.6653C87.8292 45.2513 87.5 46.0462 87.5 46.875V84.375C87.5 85.2038 87.1708 85.9987 86.5847 86.5847C85.9987 87.1708 85.2038 87.5 84.375 87.5H15.625C14.7962 87.5 14.0013 87.1708 13.4153 86.5847C12.8292 85.9987 12.5 85.2038 12.5 84.375V15.625C12.5 14.7962 12.8292 14.0013 13.4153 13.4153C14.0013 12.8292 14.7962 12.5 15.625 12.5H56.25C57.0788 12.5 57.8737 12.1708 58.4597 11.5847C59.0458 10.9987 59.375 10.2038 59.375 9.375C59.375 8.5462 59.0458 7.75134 58.4597 7.16529C57.8737 6.57924 57.0788 6.25 56.25 6.25H15.625C13.1386 6.25 10.754 7.23772 8.99587 8.99587C7.23772 10.754 6.25 13.1386 6.25 15.625V84.375Z" fill="black"/>
</svg>
