<svg width="100" height="100" viewBox="0 0 100 100" fill="none" xmlns="http://www.w3.org/2000/svg">
<path fill-rule="evenodd" clip-rule="evenodd" d="M50 12.5C50.8288 12.5 51.6237 12.8292 52.2097 13.4153C52.7958 14.0013 53.125 14.7962 53.125 15.625V46.875H84.375C85.2038 46.875 85.9987 47.2042 86.5847 47.7903C87.1708 48.3763 87.5 49.1712 87.5 50C87.5 50.8288 87.1708 51.6237 86.5847 52.2097C85.9987 52.7958 85.2038 53.125 84.375 53.125H53.125V84.375C53.125 85.2038 52.7958 85.9987 52.2097 86.5847C51.6237 87.1708 50.8288 87.5 50 87.5C49.1712 87.5 48.3763 87.1708 47.7903 86.5847C47.2042 85.9987 46.875 85.2038 46.875 84.375V53.125H15.625C14.7962 53.125 14.0013 52.7958 13.4153 52.2097C12.8292 51.6237 12.5 50.8288 12.5 50C12.5 49.1712 12.8292 48.3763 13.4153 47.7903C14.0013 47.2042 14.7962 46.875 15.625 46.875H46.875V15.625C46.875 14.7962 47.2042 14.0013 47.7903 13.4153C48.3763 12.8292 49.1712 12.5 50 12.5Z" fill="black"/>
</svg>
