<svg width="100" height="100" viewBox="0 0 100 100" fill="none" xmlns="http://www.w3.org/2000/svg">
<path fill-rule="evenodd" clip-rule="evenodd" d="M12.5 78.125C12.5 77.2962 12.8292 76.5013 13.4153 75.9153C14.0013 75.3292 14.7962 75 15.625 75H84.375C85.2038 75 85.9987 75.3292 86.5847 75.9153C87.1708 76.5013 87.5 77.2962 87.5 78.125C87.5 78.9538 87.1708 79.7487 86.5847 80.3347C85.9987 80.9208 85.2038 81.25 84.375 81.25H15.625C14.7962 81.25 14.0013 80.9208 13.4153 80.3347C12.8292 79.7487 12.5 78.9538 12.5 78.125ZM12.5 59.375C12.5 58.5462 12.8292 57.7513 13.4153 57.1653C14.0013 56.5792 14.7962 56.25 15.625 56.25H84.375C85.2038 56.25 85.9987 56.5792 86.5847 57.1653C87.1708 57.7513 87.5 58.5462 87.5 59.375C87.5 60.2038 87.1708 60.9987 86.5847 61.5847C85.9987 62.1708 85.2038 62.5 84.375 62.5H15.625C14.7962 62.5 14.0013 62.1708 13.4153 61.5847C12.8292 60.9987 12.5 60.2038 12.5 59.375ZM12.5 40.625C12.5 39.7962 12.8292 39.0013 13.4153 38.4153C14.0013 37.8292 14.7962 37.5 15.625 37.5H84.375C85.2038 37.5 85.9987 37.8292 86.5847 38.4153C87.1708 39.0013 87.5 39.7962 87.5 40.625C87.5 41.4538 87.1708 42.2487 86.5847 42.8347C85.9987 43.4208 85.2038 43.75 84.375 43.75H15.625C14.7962 43.75 14.0013 43.4208 13.4153 42.8347C12.8292 42.2487 12.5 41.4538 12.5 40.625ZM12.5 21.875C12.5 21.0462 12.8292 20.2513 13.4153 19.6653C14.0013 19.0792 14.7962 18.75 15.625 18.75H84.375C85.2038 18.75 85.9987 19.0792 86.5847 19.6653C87.1708 20.2513 87.5 21.0462 87.5 21.875C87.5 22.7038 87.1708 23.4987 86.5847 24.0847C85.9987 24.6708 85.2038 25 84.375 25H15.625C14.7962 25 14.0013 24.6708 13.4153 24.0847C12.8292 23.4987 12.5 22.7038 12.5 21.875Z" fill="black"/>
</svg>
