<svg width="100" height="100" viewBox="0 0 100 100" fill="none" xmlns="http://www.w3.org/2000/svg">
<g clip-path="url(#clip0_506_3009)">
<path d="M37.5124 34.375C37.5124 36.8614 36.5247 39.246 34.7666 41.0041C33.0084 42.7623 30.6239 43.75 28.1374 43.75C25.651 43.75 23.2665 42.7623 21.5083 41.0041C19.7502 39.246 18.7625 36.8614 18.7625 34.375C18.7625 31.8886 19.7502 29.504 21.5083 27.7459C23.2665 25.9877 25.651 25 28.1374 25C30.6239 25 33.0084 25.9877 34.7666 27.7459C36.5247 29.504 37.5124 31.8886 37.5124 34.375Z" fill="black"/>
<path d="M9.375 12.5C6.8886 12.5 4.50403 13.4877 2.74587 15.2459C0.98772 17.004 0 19.3886 0 21.875L0 78.125C0 80.6114 0.98772 82.996 2.74587 84.7541C4.50403 86.5123 6.8886 87.5 9.375 87.5H90.625C93.1114 87.5 95.496 86.5123 97.2541 84.7541C99.0123 82.996 100 80.6114 100 78.125V21.875C100 19.3886 99.0123 17.004 97.2541 15.2459C95.496 13.4877 93.1114 12.5 90.625 12.5H9.375ZM90.625 18.75C91.4538 18.75 92.2487 19.0792 92.8347 19.6653C93.4208 20.2513 93.75 21.0462 93.75 21.875V59.375L70.1563 47.2062C69.5701 46.9126 68.9065 46.8108 68.2594 46.9151C67.6122 47.0194 67.0142 47.3246 66.55 47.7875L43.3625 70.975L26.7375 59.9C26.1372 59.5004 25.4173 59.3206 24.6996 59.3913C23.982 59.4619 23.3108 59.7785 22.8 60.2875L6.2625 75V78.375L6.25 78.125V21.875C6.25 21.0462 6.57924 20.2513 7.16529 19.6653C7.75134 19.0792 8.5462 18.75 9.375 18.75H90.625Z" fill="black"/>
</g>
<defs>
<clipPath id="clip0_506_3009">
<rect width="100" height="100" fill="white"/>
</clipPath>
</defs>
</svg>
