<svg width="100" height="100" viewBox="0 0 100 100" fill="none" xmlns="http://www.w3.org/2000/svg">
<path fill-rule="evenodd" clip-rule="evenodd" d="M0 3.125C0 2.2962 0.32924 1.50134 0.915291 0.915291C1.50134 0.32924 2.2962 0 3.125 0L59.375 0C60.2038 0 60.9987 0.32924 61.5847 0.915291C62.1708 1.50134 62.5 2.2962 62.5 3.125C62.5 3.9538 62.1708 4.74866 61.5847 5.33471C60.9987 5.92076 60.2038 6.25 59.375 6.25H3.125C2.2962 6.25 1.50134 5.92076 0.915291 5.33471C0.32924 4.74866 0 3.9538 0 3.125ZM81.25 3.125C81.25 2.2962 81.5792 1.50134 82.1653 0.915291C82.7513 0.32924 83.5462 0 84.375 0L96.875 0C97.7038 0 98.4987 0.32924 99.0847 0.915291C99.6708 1.50134 100 2.2962 100 3.125C100 3.9538 99.6708 4.74866 99.0847 5.33471C98.4987 5.92076 97.7038 6.25 96.875 6.25H84.375C83.5462 6.25 82.7513 5.92076 82.1653 5.33471C81.5792 4.74866 81.25 3.9538 81.25 3.125ZM0 15.625C0 14.7962 0.32924 14.0013 0.915291 13.4153C1.50134 12.8292 2.2962 12.5 3.125 12.5H53.125C53.9538 12.5 54.7487 12.8292 55.3347 13.4153C55.9208 14.0013 56.25 14.7962 56.25 15.625C56.25 16.4538 55.9208 17.2487 55.3347 17.8347C54.7487 18.4208 53.9538 18.75 53.125 18.75H3.125C2.2962 18.75 1.50134 18.4208 0.915291 17.8347C0.32924 17.2487 0 16.4538 0 15.625ZM81.25 15.625C81.25 14.7962 81.5792 14.0013 82.1653 13.4153C82.7513 12.8292 83.5462 12.5 84.375 12.5H96.875C97.7038 12.5 98.4987 12.8292 99.0847 13.4153C99.6708 14.0013 100 14.7962 100 15.625C100 16.4538 99.6708 17.2487 99.0847 17.8347C98.4987 18.4208 97.7038 18.75 96.875 18.75H84.375C83.5462 18.75 82.7513 18.4208 82.1653 17.8347C81.5792 17.2487 81.25 16.4538 81.25 15.625ZM0 28.125C0 27.2962 0.32924 26.5013 0.915291 25.9153C1.50134 25.3292 2.2962 25 3.125 25H65.625C66.4538 25 67.2487 25.3292 67.8347 25.9153C68.4208 26.5013 68.75 27.2962 68.75 28.125C68.75 28.9538 68.4208 29.7487 67.8347 30.3347C67.2487 30.9208 66.4538 31.25 65.625 31.25H3.125C2.2962 31.25 1.50134 30.9208 0.915291 30.3347C0.32924 29.7487 0 28.9538 0 28.125ZM81.25 28.125C81.25 27.2962 81.5792 26.5013 82.1653 25.9153C82.7513 25.3292 83.5462 25 84.375 25H96.875C97.7038 25 98.4987 25.3292 99.0847 25.9153C99.6708 26.5013 100 27.2962 100 28.125C100 28.9538 99.6708 29.7487 99.0847 30.3347C98.4987 30.9208 97.7038 31.25 96.875 31.25H84.375C83.5462 31.25 82.7513 30.9208 82.1653 30.3347C81.5792 29.7487 81.25 28.9538 81.25 28.125ZM0 40.625C0 39.7962 0.32924 39.0013 0.915291 38.4153C1.50134 37.8292 2.2962 37.5 3.125 37.5H46.875C47.7038 37.5 48.4987 37.8292 49.0847 38.4153C49.6708 39.0013 50 39.7962 50 40.625C50 41.4538 49.6708 42.2487 49.0847 42.8347C48.4987 43.4208 47.7038 43.75 46.875 43.75H3.125C2.2962 43.75 1.50134 43.4208 0.915291 42.8347C0.32924 42.2487 0 41.4538 0 40.625ZM81.25 40.625C81.25 39.7962 81.5792 39.0013 82.1653 38.4153C82.7513 37.8292 83.5462 37.5 84.375 37.5H96.875C97.7038 37.5 98.4987 37.8292 99.0847 38.4153C99.6708 39.0013 100 39.7962 100 40.625C100 41.4538 99.6708 42.2487 99.0847 42.8347C98.4987 43.4208 97.7038 43.75 96.875 43.75H84.375C83.5462 43.75 82.7513 43.4208 82.1653 42.8347C81.5792 42.2487 81.25 41.4538 81.25 40.625ZM0 53.125C0 52.2962 0.32924 51.5013 0.915291 50.9153C1.50134 50.3292 2.2962 50 3.125 50H46.875C47.7038 50 48.4987 50.3292 49.0847 50.9153C49.6708 51.5013 50 52.2962 50 53.125C50 53.9538 49.6708 54.7487 49.0847 55.3347C48.4987 55.9208 47.7038 56.25 46.875 56.25H3.125C2.2962 56.25 1.50134 55.9208 0.915291 55.3347C0.32924 54.7487 0 53.9538 0 53.125ZM81.25 53.125C81.25 52.2962 81.5792 51.5013 82.1653 50.9153C82.7513 50.3292 83.5462 50 84.375 50H96.875C97.7038 50 98.4987 50.3292 99.0847 50.9153C99.6708 51.5013 100 52.2962 100 53.125C100 53.9538 99.6708 54.7487 99.0847 55.3347C98.4987 55.9208 97.7038 56.25 96.875 56.25H84.375C83.5462 56.25 82.7513 55.9208 82.1653 55.3347C81.5792 54.7487 81.25 53.9538 81.25 53.125ZM0 65.625C0 64.7962 0.32924 64.0013 0.915291 63.4153C1.50134 62.8292 2.2962 62.5 3.125 62.5H59.375C60.2038 62.5 60.9987 62.8292 61.5847 63.4153C62.1708 64.0013 62.5 64.7962 62.5 65.625C62.5 66.4538 62.1708 67.2487 61.5847 67.8347C60.9987 68.4208 60.2038 68.75 59.375 68.75H3.125C2.2962 68.75 1.50134 68.4208 0.915291 67.8347C0.32924 67.2487 0 66.4538 0 65.625ZM81.25 65.625C81.25 64.7962 81.5792 64.0013 82.1653 63.4153C82.7513 62.8292 83.5462 62.5 84.375 62.5H96.875C97.7038 62.5 98.4987 62.8292 99.0847 63.4153C99.6708 64.0013 100 64.7962 100 65.625C100 66.4538 99.6708 67.2487 99.0847 67.8347C98.4987 68.4208 97.7038 68.75 96.875 68.75H84.375C83.5462 68.75 82.7513 68.4208 82.1653 67.8347C81.5792 67.2487 81.25 66.4538 81.25 65.625ZM0 78.125C0 77.2962 0.32924 76.5013 0.915291 75.9153C1.50134 75.3292 2.2962 75 3.125 75H34.375C35.2038 75 35.9987 75.3292 36.5847 75.9153C37.1708 76.5013 37.5 77.2962 37.5 78.125C37.5 78.9538 37.1708 79.7487 36.5847 80.3347C35.9987 80.9208 35.2038 81.25 34.375 81.25H3.125C2.2962 81.25 1.50134 80.9208 0.915291 80.3347C0.32924 79.7487 0 78.9538 0 78.125ZM81.25 78.125C81.25 77.2962 81.5792 76.5013 82.1653 75.9153C82.7513 75.3292 83.5462 75 84.375 75H96.875C97.7038 75 98.4987 75.3292 99.0847 75.9153C99.6708 76.5013 100 77.2962 100 78.125C100 78.9538 99.6708 79.7487 99.0847 80.3347C98.4987 80.9208 97.7038 81.25 96.875 81.25H84.375C83.5462 81.25 82.7513 80.9208 82.1653 80.3347C81.5792 79.7487 81.25 78.9538 81.25 78.125ZM0 90.625C0 89.7962 0.32924 89.0013 0.915291 88.4153C1.50134 87.8292 2.2962 87.5 3.125 87.5H65.625C66.4538 87.5 67.2487 87.8292 67.8347 88.4153C68.4208 89.0013 68.75 89.7962 68.75 90.625C68.75 91.4538 68.4208 92.2487 67.8347 92.8347C67.2487 93.4208 66.4538 93.75 65.625 93.75H3.125C2.2962 93.75 1.50134 93.4208 0.915291 92.8347C0.32924 92.2487 0 91.4538 0 90.625ZM81.25 90.625C81.25 89.7962 81.5792 89.0013 82.1653 88.4153C82.7513 87.8292 83.5462 87.5 84.375 87.5H96.875C97.7038 87.5 98.4987 87.8292 99.0847 88.4153C99.6708 89.0013 100 89.7962 100 90.625C100 91.4538 99.6708 92.2487 99.0847 92.8347C98.4987 93.4208 97.7038 93.75 96.875 93.75H84.375C83.5462 93.75 82.7513 93.4208 82.1653 92.8347C81.5792 92.2487 81.25 91.4538 81.25 90.625Z" fill="black"/>
</svg>
