<svg width="100" height="100" viewBox="0 0 100 100" fill="none" xmlns="http://www.w3.org/2000/svg">
<path d="M50 50C54.9728 50 59.7419 48.0246 63.2583 44.5083C66.7746 40.9919 68.75 36.2228 68.75 31.25C68.75 26.2772 66.7746 21.5081 63.2583 17.9917C59.7419 14.4754 54.9728 12.5 50 12.5C45.0272 12.5 40.2581 14.4754 36.7417 17.9917C33.2254 21.5081 31.25 26.2772 31.25 31.25C31.25 36.2228 33.2254 40.9919 36.7417 44.5083C40.2581 48.0246 45.0272 50 50 50ZM62.5 31.25C62.5 34.5652 61.183 37.7446 58.8388 40.0888C56.4946 42.433 53.3152 43.75 50 43.75C46.6848 43.75 43.5054 42.433 41.1612 40.0888C38.817 37.7446 37.5 34.5652 37.5 31.25C37.5 27.9348 38.817 24.7554 41.1612 22.4112C43.5054 20.067 46.6848 18.75 50 18.75C53.3152 18.75 56.4946 20.067 58.8388 22.4112C61.183 24.7554 62.5 27.9348 62.5 31.25ZM87.5 81.25C87.5 87.5 81.25 87.5 81.25 87.5H18.75C18.75 87.5 12.5 87.5 12.5 81.25C12.5 75 18.75 56.25 50 56.25C81.25 56.25 87.5 75 87.5 81.25ZM81.25 81.225C81.2438 79.6875 80.2875 75.0625 76.05 70.825C71.975 66.75 64.3063 62.5 50 62.5C35.6938 62.5 28.025 66.75 23.95 70.825C19.7125 75.0625 18.7625 79.6875 18.75 81.225H81.25Z" fill="black"/>
</svg>
