<svg width="18" height="65" viewBox="0 0 18 65" fill="none" xmlns="http://www.w3.org/2000/svg">
<path d="M3.14839 19.9376C1.99594 19.4766 1.07396 18.497 0.670604 17.2869C0.20962 16.0192 0.267243 14.521 0.843475 13.3109C1.4197 12.1585 2.45692 11.2941 3.60938 10.9484C4.81947 10.6026 6.14479 10.8908 7.18201 11.6398C8.21925 12.3889 8.91068 13.599 9.02596 14.9244C9.19884 16.2497 8.79548 17.6327 7.98877 18.6698C7.18201 19.6494 5.97192 20.2833 4.70422 20.2833C4.1664 20.2833 3.6478 20.1681 3.14839 19.9376ZM9.77507 0C9.77507 0 22.164 8.87393 19.6286 22.8764C18.2456 30.8283 13.9239 36.9364 11.6766 39.0108C-2.03768 51.3421 7.81587 36.3025 6.72103 35.0924C5.74144 33.94 4.18561 33.018 3.78225 31.0012C3.43651 29.3302 4.18561 27.0828 4.81947 26.1032C6.60578 23.5102 10.0632 20.9748 11.8495 17.9207C13.4053 15.2125 14.7306 11.8704 13.8663 7.77911C13.0595 3.97599 9.77507 0 9.77507 0Z" fill="#FFCD43"/>
<path d="M10.0631 20.3409C8.39212 29.4453 13.5782 36.8211 13.5782 36.8211C11.5614 39.587 8.7378 41.3157 8.7378 41.3157C2.28405 29.4453 10.0631 20.3409 10.0631 20.3409Z" fill="#FFAD47"/>
<path d="M7.64299 26.1609C6.54815 31.1165 8.16157 35.15 10.1208 38.4921C12.3105 42.2377 16.4593 45.2917 18.8219 48.3457C21.6454 51.9184 20.1472 58.1993 16.6898 59.7551C8.16157 63.5582 1.88068 54.5114 0.382485 45.6951C-2.32579 29.6182 10.236 20.1681 10.236 20.1681C10.236 20.1681 8.6226 21.4934 7.64299 26.1609Z" fill="#FF8F2C"/>
</svg>
