<svg width="16" height="12" viewBox="0 0 16 12" fill="none" xmlns="http://www.w3.org/2000/svg">
<path d="M15.6466 1.87913C15.5549 1.51593 15.3758 1.1848 15.1274 0.918735C14.879 0.652667 14.5698 0.460938 14.2306 0.362641C12.989 0 7.99189 0 7.99189 0C7.99189 0 2.99451 0.0109769 1.75289 0.373617C1.41373 0.471921 1.10454 0.66366 0.856102 0.92974C0.607665 1.19582 0.428651 1.52696 0.336887 1.89017C-0.0386755 4.25276 -0.184363 7.85279 0.347199 10.1209C0.438973 10.4841 0.617991 10.8152 0.866427 11.0813C1.11486 11.3473 1.42405 11.5391 1.7632 11.6374C3.00482 12 8.00208 12 8.00208 12C8.00208 12 12.9993 12 14.2408 11.6374C14.58 11.5391 14.8892 11.3473 15.1376 11.0813C15.3861 10.8152 15.5651 10.4841 15.6569 10.1209C16.053 7.75494 16.1751 4.15718 15.6466 1.8792V1.87913Z" fill="#91A8B0"/>
</svg>
