<svg width="12" height="12" viewBox="0 0 12 12" fill="none" xmlns="http://www.w3.org/2000/svg">
<path d="M7.05648 5.99936L10.2784 2.78451C10.4195 2.6434 10.4987 2.45201 10.4987 2.25245C10.4987 2.05289 10.4195 1.8615 10.2784 1.72039C10.1373 1.57928 9.94591 1.5 9.74638 1.5C9.54685 1.5 9.35549 1.57928 9.21439 1.72039L6 4.94273L2.78561 1.72039C2.64451 1.57928 2.45315 1.5 2.25362 1.5C2.05409 1.5 1.86273 1.57928 1.72163 1.72039C1.58054 1.8615 1.50128 2.05289 1.50128 2.25245C1.50128 2.45201 1.58054 2.6434 1.72163 2.78451L4.94352 5.99936L1.72163 9.21421C1.65141 9.28388 1.59566 9.36676 1.55762 9.45808C1.51958 9.5494 1.5 9.64735 1.5 9.74627C1.5 9.8452 1.51958 9.94315 1.55762 10.0345C1.59566 10.1258 1.65141 10.2087 1.72163 10.2783C1.79129 10.3486 1.87416 10.4043 1.96547 10.4424C2.05677 10.4804 2.15471 10.5 2.25362 10.5C2.35253 10.5 2.45047 10.4804 2.54177 10.4424C2.63308 10.4043 2.71595 10.3486 2.78561 10.2783L6 7.05599L9.21439 10.2783C9.28405 10.3486 9.36692 10.4043 9.45823 10.4424C9.54953 10.4804 9.64747 10.5 9.74638 10.5C9.84529 10.5 9.94323 10.4804 10.0345 10.4424C10.1258 10.4043 10.2087 10.3486 10.2784 10.2783C10.3486 10.2087 10.4043 10.1258 10.4424 10.0345C10.4804 9.94315 10.5 9.8452 10.5 9.74627C10.5 9.64735 10.4804 9.5494 10.4424 9.45808C10.4043 9.36676 10.3486 9.28388 10.2784 9.21421L7.05648 5.99936Z" fill="#013087"/>
</svg>
