<?xml version="1.0" encoding="UTF-8" standalone="no"?>
<svg
   xmlns:dc="http://purl.org/dc/elements/1.1/"
   xmlns:cc="http://creativecommons.org/ns#"
   xmlns:rdf="http://www.w3.org/1999/02/22-rdf-syntax-ns#"
   xmlns:svg="http://www.w3.org/2000/svg"
   xmlns="http://www.w3.org/2000/svg"
   version="1.1"
   width="200"
   height="35"
   viewBox="0 0 500 155"
   xml:space="preserve">
<path id="fond"
     d="m 89.716,476.559 -19.139,-19.387 -0.246,-71.086 19.388,-19.389 421.303,0.746 19.136,19.14 -0.497,71.085 -19.388,18.891 z"
     transform="matrix(0.9860453,0,0,0.9860453,-45.486533,-337.57084)"
     style="fill:#8e162e" />
<path id="nicolas"
     d="m 380.03125,44.28125 c -0.64389,0 -1.63425,0.476865 -2.09375,0.75 l -8.59375,3.5625 c -0.73559,0.366809 -3.1875,1.025559 -3.1875,2.125 0,0.643887 0.90739,2.228989 1.09375,2.6875 l 0.125,1.5 -16.4375,42.625 -4.8125,12.8125 16.46875,-0.0312 0,-1.78125 c 0,-1.79756 -2.3125,-1.6875 -2.3125,-1.6875 -5.17871,0.19622 -4.84375,-3.71875 -4.84375,-3.71875 0.0799,-1.98688 0.73111,-3.782689 1.375,-5.15625 l 3.46875,-9 18.65625,0 3.96875,11.3125 c 0.46048,1.00576 0.90625,2.33806 0.90625,3.4375 0,0.49105 -0.088,0.84003 -0.28125,1.125 0,0 -0.50546,1.89745 -4,2 0,0 -2.8125,-0.20965 -2.8125,1.6875 l 0,1.78125 31.5,0 0,-1.59375 c 0,-2.09732 -2.28125,-1.87402 -2.28125,-1.875 -2.99264,-0.10157 -4.1875,-1.53125 -4.1875,-1.53125 -0.72771,-0.62416 -1.43962,-1.58085 -2.03125,-3.125 L 381.75,47.5 c -0.5581,-1.470194 -0.61537,-3.21875 -1.71875,-3.21875 z m 52.3125,0.25 c -9.09725,0 -18.34375,7.600558 -18.34375,18.875 0,21.400141 26.96875,19.566571 26.96875,34.78125 0,6.97036 -7.44523,8.34375 -10.5,8.34375 -13.8776,0 -10.97799,-16.15625 -14.6875,-16.15625 l -1.59375,0 0,15.3125 c 5.37198,3.21943 10.57023,5.375 17.6875,5.375 10.75283,0 22.53125,-4.17876 22.53125,-17.375 0,-22.628754 -28.9375,-21.566194 -28.9375,-35.5 0,-5.318729 3.88864,-8.53125 8.15625,-8.53125 11.30205,0 15.63106,10.636827 15.8125,14.28125 l 2.53125,0 0,-16.21875 -3.71875,0 c -0.23665,0.917022 0.0999,1.71875 -0.84375,1.71875 -0.94463,0 -2.41436,-1.176879 -4.3125,-2.28125 -1.89814,-1.008724 -7.43195,-2.625 -10.75,-2.625 z m -179.78125,0.375 c -18.86601,0 -31.5,13.907356 -31.5,33.1875 0,19.192386 12.64195,33.09276 31.59375,33.09375 18.86501,0 31.46875,-13.907356 31.46875,-33.1875 0,-19.191399 -12.61071,-33.09375 -31.5625,-33.09375 z m -66.28125,0.03125 c -19.714,0 -29.375,18.472215 -29.375,32.9375 0,16.606975 10.5605,33.03125 30.46875,33.03125 9.04006,0 15.00059,-3.00743 20.21875,-8.53125 2.90784,-3.079421 4.75099,-7.40625 4.75,-7.40625 0.79771,-1.293691 -0.40625,-1.875 -0.40625,-1.875 -1.5974,-0.895333 -1.96875,0.09375 -1.96875,0.09375 -9.85552,14.04917 -19.03125,13.03125 -19.03125,13.03125 -20.62215,0 -18.34375,-26.78125 -18.34375,-26.78125 C 172.79096,66.284641 176,59.8125 176,59.8125 c 4.08026,-11.558423 13.4375,-10.15625 13.4375,-10.15625 16.23819,0 17.9375,15.8125 17.9375,15.8125 0.49697,1.398212 1.5,1.125 1.5,1.125 1.19608,0 1.1875,-0.90625 1.1875,-0.90625 l -0.8125,-17.78125 -4.71875,0 c -0.20116,0.712911 -0.68393,1.34375 -1.5625,1.34375 -2.43948,0 -6.73534,-4.3125 -16.6875,-4.3125 z m -140.4375,0.8125 0,1.65625 c 0,4.03194 7.34375,-1.012603 7.34375,6.59375 l 0,4.125 0,37.15625 0,6.6875 c 0,7.60931 -7.34375,2.56181 -7.34375,6.59375 l 0,1.65625 19.625,0 0,-1.65625 c 0,-4.03293 -7.21875,1.01457 -7.21875,-6.59375 l 0,-6.6875 0,-10.46875 0,-25.5625 42.71875,50.96875 4.40625,0 0,-14.9375 0,-41.28125 c 0,-7.606353 7.21875,-2.56181 7.21875,-6.59375 l 0,-1.65625 -19.625,0 0,1.65625 c 0,4.03194 7.34375,-1.012603 7.34375,6.59375 l 0,30.21875 -31.9375,-38.4375 -2.90625,0 0,-0.03125 -19.625,0 z m 245.40625,0 0,1.65625 c 0,4.03194 7.3125,-1.012603 7.3125,6.59375 l 0,41.78125 0,6.28125 c 0,7.60537 -7.3125,2.56575 -7.3125,6.59375 l 0,1.65625 19.84375,0 28.375,0 L 345,97 c 0.38653,-1.242417 -0.10205,-1.907159 -0.5625,-2.21875 -0.49992,-0.350046 -1.21875,-0.25 -1.21875,-0.25 -5.75259,0.679385 0.4119,10.6875 -20.28125,10.6875 l -9.25,0 0,-51.21875 c 0,-7.606353 7.25,-2.56181 7.25,-6.59375 l 0,-1.65625 -29.6875,0 z m -171.03125,0.03125 0,1.65625 c 0,4.028982 7.25,-1.01359 7.25,6.59375 l 0,47.9375 c 0,7.60833 -7.34375,2.55885 -7.34375,6.59375 l 0,1.65625 30.1875,0 0,-1.65625 c 0,-4.03391 -7.21875,1.01556 -7.21875,-6.59375 l 0,-47.9375 c 0,-7.60734 7.21875,-2.564768 7.21875,-6.59375 l 0,-1.65625 -30.09375,0 z m 132.5,3.4375 c 14.08566,0 16.125,18.652669 16.125,28.875 0,10.138518 -2.03532,28.78125 -16.03125,28.78125 -14.07974,0 -16.15625,-18.647738 -16.15625,-28.875 0,-10.133587 2.07249,-28.78125 16.0625,-28.78125 z m 117.375,14.0625 7.09375,20.25 -14.875,0 7.78125,-20.25 z m -61.15625,44.53125 0.125,0 -0.0625,0.0625 -0.0625,-0.0625 z"
     transform="translate(-1e-5,0)"
     style="fill:#ffd426" />
<path id="contour"
     d="M 457.40377,20.88325 H 41.264061 L 19.999994,41.582313 v 71.835367 l 21.264067,20.69907 H 458.72409 l 21.2759,-20.69907 V 41.582313 L 458.72409,20.88325 h -1.32032 z m -1.32524,6.218987 c 1.61021,1.569785 15.91378,15.491758 17.52892,17.058584 v 66.678359 c -1.61612,1.56584 -15.9197,15.49175 -17.52892,17.05562 H 43.913564 C 42.304338,126.33093 27.998793,112.40502 26.385623,110.83918 V 44.160821 C 27.999779,42.593995 42.305324,28.672022 43.913564,27.102237 H 456.07853 z"
     style="fill:#ffd426" />
</svg>